Basha (1995) DvdRip Telugu Movie - teluguppls

General

Format                           : MPEG-4
Format profile                   : Base Media
Codec ID                         : isom
File size                        : 707 MiB
Duration                         : 2h 23mn
Overall bit rate                 : 686 Kbps


Video

Format                           : AVC
Format/Info                      : Advanced Video Codec
Format profile                   : High@L2.1
Format settings, CABAC           : Yes
Format settings, ReFrames        : 5 frames
Codec ID                         : avc1
Codec ID/Info                    : Advanced Video Coding
Duration                         : 2h 23mn
Bit rate mode                    : Variable
Bit rate                         : 634 Kbps
Maximum bit rate                 : 1 642 Kbps
Width                            : 608 pixels
Height                           : 304 pixels
Display aspect ratio             : 2.000
Frame rate mode                  : Constant
Frame rate                       : 23.976 fps
Color space                      : YUV
Chroma subsampling               : 4:2:0
Bit depth                        : 8 bits
Scan type                        : Progressive
Bits/(Pixel*Frame)               : 0.143
Stream size                      : 653 MiB (92%)
Writing library                  : x264 core 68 r1183M f21daff


Audio

Format                           : AAC
Format/Info                      : Advanced Audio Codec
Format profile                   : LC
Codec ID                         : 40
Duration                         : 2h 23mn
Bit rate mode                    : Variable
Bit rate                         : 48.0 Kbps
Maximum bit rate                 : 53.0 Kbps
Channel(s)                       : 2 channels
Channel positions                : Front: L R
Sampling rate                    : 48.0 KHz
Compression mode                 : Lossy
Stream size                      : 49.4 MiB (7%)



please seeeeeeeeeeeeeeddddddddddddddddddddd.........................

please comment...........................
